<svg xmlns="http://www.w3.org/2000/svg" viewBox="0 0 854.03 160.62"><defs><style>.cls-1{fill:#fff}</style></defs><g id="Layer_2" data-name="Layer 2"><g id="Layer_1-2" data-name="Layer 1"><path class="cls-1" d="M415 120.57h23c-3.39 12.88-9.82 22.66-19.35 29.44q-14.25 10.59-35.88 10.61-26.25 0-41-17Q327.1 127 327.11 96.19c0-19.63 4.75-35 14.26-46q14.73-17.07 41-17 27.65 0 42.81 16.55a63.12 63.12 0 0 1 11.94 23.49h-32.2a26.64 26.64 0 0 0-4.6-6.9c-4-4.26-9.65-6.46-17-6.46-6.74 0-12.27 2.2-16.56 6.46q-8.26 9.18-8.27 30.36c0 14.1 2.76 24.1 8.27 29.9 4 4.91 9.94 7.42 18 7.42A26 26 0 0 0 398 130.7a7.26 7.26 0 0 0 2.53-1.62c.76-.79 1.6-1.61 2.52-2.56a20.72 20.72 0 0 1 3.68-3.64c1.85-1.52 4.59-2.31 8.3-2.31M180.7 158.31V28.09h46.93V16.56a15.94 15.94 0 0 0-4.82-11.72A16.15 16.15 0 0 0 211.07 0H101.55v28.09H148v130.22zM527 70.41a21.94 21.94 0 0 0-18.85-9.66c-8.59 0-15.21 3.08-19.79 9.19s-6.91 14.56-6.91 25.33v63h-31.3V0h15.61a15.2 15.2 0 0 1 11.09 4.58 15.14 15.14 0 0 1 4.59 11.06V52c5.56-9.2 13.36-15.06 23.49-17.49a46.31 46.31 0 0 1 29 1.86 51.87 51.87 0 0 1 21.66 17.48q8.69 11.92 8.7 33.15v71.31h-30.86V94.78a65.32 65.32 0 0 0-1.15-12.61A32 32 0 0 0 527 70.41m-235.32 50.16h23c-3.39 12.88-9.81 22.66-19.33 29.44q-14.25 10.59-35.89 10.61c-17.52 0-31.12-5.69-41-17Q203.79 127 203.79 96.19c0-19.63 4.74-35 14.25-46 9.8-11.38 23.49-17 41-17q27.6 0 42.8 16.55 14.73 17 14.74 47.4v5.07a7.75 7.75 0 0 1-.48 3.23h-79.63c.31 9.53 2.57 16.56 6.9 21.15 4 4.91 9.93 7.42 17.95 7.42a25.78 25.78 0 0 0 13.29-3.24 7.06 7.06 0 0 0 2.57-1.62c.74-.79 1.6-1.61 2.51-2.56.32-.89 1.44-2.12 3.47-3.64s4.82-2.31 8.52-2.31m-55.21-35.98h46.92c-.64-8.29-2.76-14.41-6.45-18.4-4-4.26-9.65-6.46-17.05-6.46-6.69 0-12.24 2.2-16.52 6.46s-6.59 10.45-6.9 18.4M726.26 158.31v-59.4c0-11.91 1.77-22 5.31-30.12a50.21 50.21 0 0 1 14.49-19.57 55.91 55.91 0 0 1 20.47-10.08 88.82 88.82 0 0 1 24.18-3.24h4.58v32.64H784.7c-8.88 0-15.48 2.19-19.79 6.46s-6.45 11-6.45 20.27v63zM63.87 0h20.47v28H51V12.27Q50.93 0 63.87 0M0 125.25h33.85v33H0v-33zm12.92-83.71h20.93v33.84H0v-21C0 45.77 4.32 41.5 12.92 41.5m38.06 0h33.41v116.78H51zM854 158.31a236.81 236.81 0 0 1-32.9-.51q-17.73-1.34-17.72-22.55V0H820a14.58 14.58 0 0 1 10.56 4.58 15.09 15.09 0 0 1 4.61 11.06v20.73H854v16.41A14.81 14.81 0 0 1 849.43 64a15.53 15.53 0 0 1-11.06 4.38h-3.22v54.77c0 5.22 3.06 7.86 9.22 7.86 7.75 0 9.66 2.91 9.66 9.56zM639.1 0h25.79l57.49 158.31h-34.47l-10.61-32.68h-61.65l-10.13 32.68H571l52.47-147.77c2.76-7 8-10.54 15.63-10.54m7.37 31.72l-22.09 67.19h44.15z"/></g></g></svg>